<?xml version="1.0" encoding="utf-8"?>
<!-- Generator: Adobe Illustrator 16.0.0, SVG Export Plug-In . SVG Version: 6.00 Build 0)  -->
<!DOCTYPE svg PUBLIC "-//W3C//DTD SVG 1.1//EN" "http://www.w3.org/Graphics/SVG/1.1/DTD/svg11.dtd">
<svg version="1.1" id="Layer_1" xmlns="http://www.w3.org/2000/svg" xmlns:xlink="http://www.w3.org/1999/xlink" x="0px" y="0px"
	 width="180px" height="300px" viewBox="0 0 180 300" enable-background="new 0 0 180 300" xml:space="preserve">
<path fill="#E2E2E1" stroke="#212529" stroke-width="0.4602" stroke-miterlimit="10" d="M60.403,18.04h54
	c0,0,12.125,8.578,12.125,19.907c0,29.401,1.236,140.975,0.402,178.247c-0.097,4.285-4.559,5.468-6.402,5.468
	c-19.838,0-44.458-0.461-66.5,0c-1.701,0.036-5.92-1.394-6-5.258c-0.667-32.189,0-147.776,0-178.367
	C49.653,22.908,60.403,18.04,60.403,18.04z"/>
<polygon fill="#193F6F" points="148.711,79.972 148.711,83.093 146.706,81.521 "/>
<g enable-background="new    ">
	<path fill="#19204F" d="M150.723,96.436V95.55c0-0.246,0.088-0.456,0.264-0.63c0.175-0.174,0.385-0.261,0.631-0.261h0.589
		c0.245,0,0.455,0.087,0.629,0.261c0.175,0.174,0.265,0.384,0.265,0.63v0.295h1.774v0.591H150.723z M152.5,95.607
		c0-0.098-0.033-0.182-0.104-0.251c-0.071-0.069-0.153-0.105-0.252-0.105h-0.473c-0.102,0-0.186,0.035-0.254,0.105
		c-0.066,0.07-0.104,0.154-0.104,0.251v0.237h1.185L152.5,95.607L152.5,95.607z"/>
	<path fill="#19204F" d="M150.723,94.292v-0.593h3.262c0.08,0,0.15-0.028,0.209-0.085c0.059-0.059,0.086-0.128,0.086-0.21
		s-0.027-0.151-0.086-0.21c-0.059-0.059-0.129-0.088-0.209-0.088h-3.262v-0.591h3.262c0.244,0,0.455,0.086,0.631,0.259
		c0.173,0.174,0.259,0.384,0.259,0.63c0,0.246-0.087,0.455-0.261,0.629c-0.176,0.173-0.385,0.26-0.629,0.26L150.723,94.292
		L150.723,94.292z"/>
	<path fill="#19204F" d="M152.5,90.866h0.594v0.688h1.186v-0.688h0.595v1.282h-4.146v-1.282h0.594v0.688h1.184v-0.688H152.5z"/>
	<path fill="#19204F" d="M152.5,88.774c0.215,0.08,0.379,0.219,0.488,0.417l0.104-0.024l0.596-0.149l0.59-0.149l0.594-0.146v0.591
		l-0.594,0.149l-0.59,0.149l-0.596,0.146v0.149h1.776V90.5h-4.146v-0.886c0-0.106,0.018-0.206,0.051-0.3
		c0.064-0.176,0.174-0.318,0.324-0.427c0.147-0.109,0.32-0.164,0.516-0.164h0.59C152.307,88.722,152.406,88.739,152.5,88.774z
		 M152.5,89.906v-0.234c0-0.098-0.033-0.181-0.1-0.249c-0.067-0.068-0.15-0.105-0.252-0.11c-0.002,0-0.004,0-0.004,0h-0.475
		c-0.002,0-0.004,0-0.007,0c-0.103,0.005-0.185,0.042-0.25,0.11c-0.063,0.068-0.103,0.151-0.103,0.249v0.234H152.5z"/>
	<path fill="#19204F" d="M151.316,86.58v0.591h3.555v0.593h-3.555v0.593h-0.594V86.58H151.316z"/>
	<path fill="#19204F" d="M151.611,86.213c-0.245,0-0.455-0.087-0.629-0.26c-0.174-0.174-0.26-0.383-0.26-0.629
		c0-0.246,0.086-0.455,0.26-0.629c0.174-0.173,0.384-0.26,0.629-0.26h3.26v0.593h-1.777v0.593h1.777v0.591L151.611,86.213
		L151.611,86.213z M152.5,85.028h-0.889c-0.082,0-0.15,0.029-0.209,0.086c-0.057,0.058-0.086,0.127-0.086,0.209
		c0,0.083,0.029,0.153,0.086,0.211c0.059,0.058,0.127,0.087,0.209,0.087h0.889V85.028z"/>
	<path fill="#19204F" d="M150.723,82.747v-0.886c0-0.246,0.088-0.456,0.264-0.63c0.175-0.174,0.385-0.261,0.631-0.261h0.589
		c0.245,0,0.455,0.087,0.629,0.261c0.175,0.174,0.265,0.384,0.265,0.63v0.295h1.774v0.591H150.723z M152.5,81.918
		c0-0.098-0.033-0.182-0.104-0.251c-0.071-0.069-0.153-0.105-0.252-0.105h-0.473c-0.102,0-0.186,0.035-0.254,0.105
		c-0.066,0.07-0.104,0.154-0.104,0.251v0.237h1.185L152.5,81.918L152.5,81.918z"/>
	<path fill="#19204F" d="M152.5,78.876c0.215,0.08,0.379,0.219,0.488,0.417l0.104-0.024l0.596-0.149l0.59-0.149l0.594-0.146v0.591
		l-0.594,0.149l-0.59,0.149l-0.596,0.146v0.149h1.776v0.593h-4.146v-0.886c0-0.106,0.018-0.206,0.051-0.3
		c0.064-0.176,0.174-0.318,0.324-0.427c0.147-0.109,0.32-0.164,0.516-0.164h0.59C152.307,78.825,152.406,78.842,152.5,78.876z
		 M152.5,80.009v-0.234c0-0.098-0.033-0.181-0.1-0.249c-0.067-0.068-0.15-0.105-0.252-0.11c-0.002,0-0.004,0-0.004,0h-0.475
		c-0.002,0-0.004,0-0.007,0c-0.103,0.005-0.185,0.042-0.25,0.11c-0.063,0.068-0.103,0.151-0.103,0.249v0.234H152.5z"/>
	<path fill="#19204F" d="M154.871,77.865v0.593h-4.148v-0.593H154.871z"/>
	<path fill="#19204F" d="M154.871,75.722v0.593h-3.26c-0.082,0-0.15,0.028-0.209,0.085c-0.061,0.059-0.086,0.128-0.086,0.21
		s0.029,0.151,0.086,0.21c0.059,0.059,0.127,0.088,0.209,0.088h3.26V77.5h-3.26c-0.245,0-0.454-0.086-0.627-0.259
		c-0.174-0.174-0.262-0.384-0.262-0.63s0.086-0.455,0.26-0.629c0.174-0.173,0.384-0.26,0.629-0.26H154.871L154.871,75.722z"/>
	<path fill="#19204F" d="M152.5,73.579v0.593h-0.889c-0.082,0-0.15,0.029-0.209,0.086c-0.057,0.058-0.086,0.127-0.086,0.209
		c0,0.082,0.029,0.151,0.086,0.209c0.059,0.058,0.127,0.086,0.209,0.086h2.371c0.08,0,0.148-0.029,0.209-0.086
		c0.058-0.058,0.086-0.127,0.086-0.209c0-0.082-0.028-0.151-0.086-0.209c-0.061-0.058-0.129-0.086-0.209-0.086h-0.891v-0.593h0.891
		c0.246,0,0.455,0.087,0.629,0.26c0.173,0.174,0.26,0.383,0.26,0.629c0,0.246-0.087,0.455-0.26,0.629
		c-0.174,0.173-0.383,0.26-0.629,0.26h-2.371c-0.245,0-0.455-0.087-0.629-0.26c-0.174-0.174-0.26-0.383-0.26-0.629
		c0-0.246,0.086-0.455,0.26-0.629c0.174-0.173,0.384-0.26,0.629-0.26H152.5z"/>
	<path fill="#19204F" d="M154.871,72.619v0.593h-4.148v-0.593H154.871z"/>
	<path fill="#19204F" d="M150.723,72.253v-0.886c0-0.246,0.088-0.456,0.264-0.63c0.175-0.174,0.385-0.261,0.631-0.261h0.589
		c0.245,0,0.455,0.087,0.629,0.261c0.175,0.174,0.265,0.384,0.265,0.63v0.295h1.774v0.591H150.723z M152.5,71.425
		c0-0.098-0.033-0.182-0.104-0.251c-0.071-0.069-0.153-0.105-0.252-0.105h-0.473c-0.102,0-0.186,0.035-0.254,0.105
		c-0.066,0.07-0.104,0.154-0.104,0.251v0.237h1.185L152.5,71.425L152.5,71.425z"/>
	<path fill="#19204F" d="M151.611,70.109c-0.245,0-0.455-0.087-0.629-0.26c-0.174-0.174-0.26-0.383-0.26-0.629
		c0-0.246,0.086-0.455,0.26-0.629c0.174-0.173,0.384-0.26,0.629-0.26h3.26v0.593h-1.777v0.593h1.777v0.591L151.611,70.109
		L151.611,70.109z M152.5,68.925h-0.889c-0.082,0-0.15,0.029-0.209,0.086c-0.057,0.058-0.086,0.127-0.086,0.209
		c0,0.083,0.029,0.153,0.086,0.211c0.059,0.058,0.127,0.087,0.209,0.087h0.889V68.925z"/>
	<path fill="#19204F" d="M154.871,66.188v1.777h-4.148v-0.593h3.557v-1.184H154.871z"/>
</g>
<image display="none" overflow="visible" enable-background="new    " width="340" height="650" xlink:href="C:\Users\4SOLUCIONES\Pictures\ford-15-seat.jpg"  transform="matrix(0.491 0 0 0.491 -110.4497 30.1206)">
</image>
<path fill="none" stroke="#212529" stroke-width="0.5" stroke-miterlimit="10" d="M48.028,41.649c0,0,0.438-11.36,26.875-15.172
	c22.438,0,0.125,0,23.125,0c20.5,2.125,28.05,10.553,28.5,15.063"/>
<path fill="none" stroke="#212529" stroke-width="0.5" stroke-miterlimit="10" d="M64.778,32.211"/>
<polygon fill="#212529" stroke="#212529" stroke-width="0.5" stroke-miterlimit="10" points="64.778,32.54 65.591,34.665 
	74.653,32.211 85.216,32.211 85.216,29.227 74.153,29.227 "/>
<polygon fill="#212529" stroke="#212529" stroke-width="0.5" stroke-miterlimit="10" points="109.529,32.54 108.717,34.665 
	99.652,32.211 89.091,32.211 89.091,29.227 100.152,29.227 "/>
<polyline fill="#212529" stroke="#212529" stroke-width="0.5" stroke-miterlimit="10" points="42.903,58.415 38.403,58.415 
	36.778,59.477 35.591,60.79 35.091,62.415 35.091,63.852 36.653,63.852 37.716,63.102 38.997,62.477 39.653,62.29 40.091,61.977 
	40.528,61.54 41.341,61.727 42.903,61.79 "/>
<polyline fill="#212529" stroke="#212529" stroke-width="0.5" stroke-miterlimit="10" points="131.736,58.415 136.236,58.415 
	137.861,59.477 139.05,60.79 139.55,62.415 139.55,63.852 137.986,63.852 136.925,63.102 135.643,62.477 134.986,62.29 
	134.549,61.977 134.111,61.54 133.3,61.727 131.736,61.79 "/>
<path fill="none" stroke="#212529" stroke-width="0.5" stroke-miterlimit="10" d="M125.466,50.54"/>
<path fill="none" stroke="#212529" stroke-width="0.5" stroke-miterlimit="10" d="M48.028,50.649c0,0,0.438-11.36,26.875-15.172
	c22.438,0,0.125,0,23.125,0c20.5,2.125,28.05,10.553,28.5,15.063"/>
<path fill="#E2E2E1" stroke="#212529" stroke-width="0.5" stroke-miterlimit="10" d="M49.487,49.697
	c5.386-11.417,28.004-12.75,28.004-12.75H96.3c0,0,23.282,1.333,28.729,13.592c1.518,3.416-1.389,17.325-1.471,18.575
	c-0.084,1.25-2.982,2.5-2.982,2.5s-12.049-0.649-32.728-0.649c-20.098,0-34.799,0.649-34.799,0.649l-2.403-2
	C50.646,69.614,50.481,67.447,49.487,49.697z"/>
<polygon fill="#212529" stroke="#212529" stroke-width="0.5" stroke-miterlimit="10" points="47.732,57.196 42.903,46.029 
	42.903,93.79 48.028,97.444 "/>
<polygon fill="#212529" stroke="#212529" stroke-width="0.5" stroke-miterlimit="10" points="126.572,57.196 131.736,45.696 
	131.736,93.278 126.793,97.444 "/>
<line fill="none" stroke="#212529" stroke-width="0.5" stroke-miterlimit="10" x1="42.903" y1="93.278" x2="47.732" y2="97.444"/>
<rect x="42.903" y="105.115" fill="none" stroke="#212529" stroke-width="0.5" stroke-miterlimit="10" width="4.841" height="62.833"/>
<rect x="44.32" y="106.782" fill="#212529" stroke="#212529" stroke-width="0.5" stroke-miterlimit="10" width="2.167" height="59.25"/>
<rect x="126.837" y="105.115" fill="none" stroke="#212529" stroke-width="0.5" stroke-miterlimit="10" width="4.899" height="62.5"/>
<rect x="128.152" y="106.782" fill="#212529" stroke="#212529" stroke-width="0.5" stroke-miterlimit="10" width="2.334" height="59.25"/>
<rect x="44.262" y="170.039" fill="#212529" stroke="#212529" stroke-width="0.3659" stroke-miterlimit="10" width="2.029" height="46.028"/>
<rect x="128.152" y="170.039" fill="#212529" stroke="#212529" stroke-width="0.3781" stroke-miterlimit="10" width="2.334" height="46.028"/>
<rect x="55.038" y="223.788" fill="#212529" stroke="#212529" stroke-width="0.5" stroke-miterlimit="10" width="30" height="2.5"/>
<rect x="89.913" y="223.788" fill="#212529" stroke="#212529" stroke-width="0.5" stroke-miterlimit="10" width="30" height="2.5"/>
<polygon fill="#212529" stroke="#212529" stroke-width="0.5" stroke-miterlimit="10" points="69.153,10.063 66.028,14.79 
	108.527,14.79 105.777,10.063 "/>
<polyline fill="#E2E2E1" stroke="#212529" stroke-width="0.5" stroke-miterlimit="10" points="42.903,38.165 50.074,31.946 
	52.573,26.477 55.945,21.818 59.903,15.915 66.653,10.063 59.737,10.063 49.012,20.555 42.903,34.375 "/>
<polyline fill="#E2E2E1" stroke="#212529" stroke-width="0.5" stroke-miterlimit="10" points="131.736,38.165 124.564,31.946 
	122.066,26.477 118.695,21.818 114.736,15.915 107.986,10.063 114.902,10.063 125.628,20.555 131.736,34.375 "/>
<polyline fill="#E2E2E1" stroke="#212529" stroke-width="0.5" stroke-miterlimit="10" points="42.403,217.788 47.815,217.788 
	48.971,219.884 51.446,221.68 51.446,228.134 47.232,228.104 44.355,226.538 42.523,222.96 "/>
<polyline fill="#E2E2E1" stroke="#212529" stroke-width="0.5" stroke-miterlimit="10" points="132.156,217.788 126.744,217.788 
	125.588,219.884 123.113,221.68 123.113,228.134 127.328,228.104 130.205,226.538 132.036,222.96 "/>
<path fill="#595959" stroke="#212529" stroke-width="0.5" stroke-miterlimit="10" d="M64.778,47.194
	c-4.162,0-7.537,3.375-7.537,7.537s3.375,7.537,7.537,7.537c4.162,0,7.537-3.375,7.537-7.537S68.94,47.194,64.778,47.194z
	 M71.324,54.732c0,1.345-0.405,2.614-1.115,3.654l-4.265-3.35c0.024-0.102,0.052-0.203,0.052-0.305c0-0.508-0.306-0.939-0.735-1.142
	v-5.38C68.66,48.463,71.324,51.279,71.324,54.732z M64.295,48.21v5.405c-0.433,0.203-0.734,0.634-0.734,1.117
	c0,0.102,0.024,0.203,0.051,0.305l-4.237,3.35c-0.711-1.041-1.116-2.31-1.116-3.654C58.231,51.279,60.895,48.463,64.295,48.21z
	 M64.778,61.277c-1.902,0-3.604-0.812-4.796-2.106l4.236-3.35c0.179,0.101,0.354,0.152,0.56,0.152s0.406-0.076,0.56-0.152
	l4.236,3.35C68.381,60.441,66.681,61.277,64.778,61.277z"/>
<g>
	
		<rect x="81.579" y="37.604" fill="#FFFFFF" stroke="#212529" stroke-width="0.5" stroke-miterlimit="10" width="12.081" height="8.09"/>
	
		<rect x="82.22" y="38.224" fill="#BBBDBF" stroke="#212529" stroke-width="0.5" stroke-miterlimit="10" width="10.801" height="6.873"/>
	<g>
		<g enable-background="new    ">
			<path fill="#FFFFFF" stroke="#212529" stroke-width="0.5" stroke-miterlimit="10" d="M84.545,39.909v0.449h-0.428v2.733h-0.448
				v-2.733h-0.427v-0.449H84.545z"/>
			<path fill="#FFFFFF" stroke="#212529" stroke-width="0.5" stroke-miterlimit="10" d="M85.806,43.112h-0.618l-0.321-2.05
				l-0.148-1.132h0.47l0.32,2.455l0.321-2.455h0.47l-0.149,1.132L85.806,43.112z"/>
			<path fill="#FFFFFF" stroke="#212529" stroke-width="0.5" stroke-miterlimit="10" d="M88.24,40.528
				c0-0.149-0.063-0.213-0.193-0.213l0,0c-0.126,0-0.192,0.064-0.192,0.213v0.427h-0.471v-0.427c0-0.448,0.213-0.662,0.661-0.662
				c0.449,0,0.662,0.213,0.662,0.662v0.555c0,0.214-0.086,0.364-0.258,0.449c0.172,0.086,0.258,0.234,0.258,0.448v0.512
				c0,0.448-0.213,0.662-0.662,0.662c-0.448,0-0.661-0.214-0.661-0.662v-0.427h0.471v0.427c0,0.15,0.063,0.214,0.192,0.214l0,0
				c0.128,0,0.193-0.064,0.193-0.214V41.98c0-0.107-0.021-0.193-0.063-0.214c-0.021-0.021-0.063-0.021-0.128-0.021h-0.148v-0.448
				h0.19c0.043,0,0.087,0,0.106-0.021c0.043-0.021,0.064-0.086,0.064-0.193v-0.555H88.24z"/>
			<path fill="#FFFFFF" stroke="#212529" stroke-width="0.5" stroke-miterlimit="10" d="M89.115,42.429
				c0-0.278,0.149-0.534,0.426-0.747c0.277-0.214,0.428-0.384,0.428-0.512v-0.619c0-0.15-0.064-0.214-0.191-0.214l0,0
				c-0.127,0-0.193,0.064-0.193,0.214v0.426h-0.471v-0.426c0-0.448,0.215-0.662,0.662-0.662c0.448,0,0.661,0.235,0.661,0.662v0.64
				c0,0.298-0.148,0.534-0.427,0.747c-0.277,0.213-0.428,0.384-0.428,0.533v0.192h0.854v0.449h-1.323L89.115,42.429L89.115,42.429
				L89.115,42.429L89.115,42.429L89.115,42.429z"/>
			<path fill="#FFFFFF" stroke="#212529" stroke-width="0.5" stroke-miterlimit="10" d="M90.863,39.909h0.578v0.47l-0.172,0.597
				h-0.297l0.086-0.534h-0.192L90.863,39.909L90.863,39.909z M91.654,39.909h0.576v0.47l-0.17,0.597h-0.299l0.086-0.534h-0.193
				V39.909L91.654,39.909z"/>
		</g>
	</g>
</g>
<path fill="none" stroke="#212529" stroke-width="0.4634" stroke-miterlimit="10" d="M59.737,10.063h55.333
	c0,0,16.666,11.576,16.666,20.882c0,7.011,0,189.309,0,189.309v3.806c0,0-1.084,4.437-6.834,4.437s-72.417,0-76.667,0
	s-5.333-4.867-5.333-4.867s0-180.197,0-191.684C42.902,20.457,59.737,10.063,59.737,10.063z"/>
<g id="layer1">
	<path id="path3524" fill="#FFFFFF" d="M88.409,10.645c0.639,0.337,1.076,1.008,1.076,1.781c0,0.772-0.438,1.447-1.076,1.781v-0.23
		c0.244-0.146,0.451-0.351,0.602-0.593l-0.602-0.245v-0.372l0.66,0.516c0.138-0.255,0.215-0.545,0.215-0.857
		c0-0.656-0.352-1.233-0.875-1.551V10.645L88.409,10.645z M87.477,10.417c0.335,0,0.65,0.082,0.932,0.228v0.23
		c-0.258-0.154-0.559-0.247-0.877-0.257l0.23,1.645l0.646,0.503v0.372l-0.936-0.378l-0.929,0.38v-0.37l0.65-0.508l0.229-1.645
		c-0.323,0.01-0.622,0.103-0.879,0.257v-0.23C86.823,10.499,87.141,10.417,87.477,10.417L87.477,10.417L87.477,10.417z
		 M88.409,14.206c-0.281,0.146-0.597,0.23-0.932,0.23c-0.336,0-0.654-0.083-0.933-0.228v-0.232c0.272,0.166,0.593,0.259,0.933,0.259
		c0.339,0,0.657-0.094,0.932-0.259V14.206L88.409,14.206z M86.544,14.208c-0.642-0.336-1.079-1.009-1.079-1.783
		c0-0.773,0.438-1.444,1.079-1.781v0.23c-0.526,0.318-0.878,0.893-0.878,1.551c0,0.312,0.08,0.606,0.218,0.861l0.66-0.516v0.37
		l-0.6,0.247c0.15,0.241,0.354,0.443,0.6,0.589V14.208L86.544,14.208z"/>
</g>
</svg>
