<?xml version="1.0" encoding="utf-8"?>
<!-- Generator: Adobe Illustrator 16.0.0, SVG Export Plug-In . SVG Version: 6.00 Build 0)  -->
<!DOCTYPE svg PUBLIC "-//W3C//DTD SVG 1.1//EN" "http://www.w3.org/Graphics/SVG/1.1/DTD/svg11.dtd">
<svg version="1.1" id="Capa_1" xmlns="http://www.w3.org/2000/svg" xmlns:xlink="http://www.w3.org/1999/xlink" x="0px" y="0px"
	 width="300px" height="300px" viewBox="0 0 300 300" enable-background="new 0 0 300 300" xml:space="preserve">
<path fill="#C998F4" d="M259.225,75.875h-5.803v111.499c0,25.147-20.635,45.11-45.086,45.11H91.019
	c-25.122,0-45.109-20.609-45.109-45.11V75.875h-5.803c-16.743,0-29.638,13.54-29.638,29.659v164.969
	c0,16.765,13.541,29.66,29.638,29.66h219.767c16.762,0,29.657-13.54,29.657-29.66V105.534
	C288.885,88.769,275.992,75.875,259.225,75.875z"/>
<path fill="#C998F4" d="M208.336,216.1c15.428,0,27.674-12.252,27.674-27.727V28.563c0-15.476-12.246-27.726-27.674-27.726H91.019
	c-15.448,0-27.701,12.25-27.701,27.726v159.81c0,15.475,12.253,27.727,27.701,27.727H208.336L208.336,216.1z"/>
</svg>
