<?xml version="1.0" encoding="utf-8"?>
<!-- Svg Vector Icons : http://www.onlinewebfonts.com/icon -->
<!DOCTYPE svg PUBLIC "-//W3C//DTD SVG 1.1//EN" "http://www.w3.org/Graphics/SVG/1.1/DTD/svg11.dtd">
<svg version="1.1" xmlns="http://www.w3.org/2000/svg" xmlns:xlink="http://www.w3.org/1999/xlink" x="0px" y="0px" viewBox="0 0 1000 1000" enable-background="new 0 0 1000 1000" xml:space="preserve">
<metadata> Svg Vector Icons : http://www.onlinewebfonts.com/icon </metadata>
<g><g><path d="M108.9,607.9c-33.6,0-60.9,27.3-60.9,60.9c0,33.6,27.3,60.9,60.9,60.9c33.6,0,60.9-27.3,60.9-60.9C169.9,635.3,142.6,607.9,108.9,607.9z M108.9,711.1c-23.3,0-42.3-19-42.3-42.3c0-23.3,19-42.3,42.3-42.3c23.3,0,42.3,19,42.3,42.3C151.3,692.2,132.3,711.1,108.9,711.1z M990,508v-38.2L951.9,302c0-11.6-16.9-11.6-23.3-11.6H727.2c-6.4,0-11.6,1.2-11.6,11.6v305.6c0,30.4,5.2,35.7,11.6,35.7h41.1c12.9-28.4,41.5-48.1,74.6-48.1c33.1,0,61.7,19.8,74.6,48.1h60.9c6.4,0,11.7-5.2,11.7-11.6v-58.7h-10.9V508H990z M805.3,469.6h-44v-8.9h44V469.6z M752.4,446.3V321.4h168.1l19.2,124.9H752.4z M947.8,616.1h-31.2c-8.8-16.8-28-28.8-28-28.8h59.3V616.1z M50.7,576.1h636.9v73H350.1c-11.4-31.4-41.6-53.9-77-53.9c-35.3,0-65.5,22.5-77,53.9h-7.5c-11.4-31.4-41.6-53.9-77-53.9c-34.8,0-64.6,21.9-76.4,52.5C20.7,643.5,10,630,10,614.1V611c0-7.9,2.7-15.1,7.1-20.9v-28.5l-0.3-291.4h660.7l-0.7,291.4H50.7V576.1z M840.2,607.9c-33.6,0-60.9,27.3-60.9,60.9c0,33.6,27.3,60.9,60.9,60.9c33.6,0,60.9-27.3,60.9-60.9C901.1,635.3,873.8,607.9,840.2,607.9z M840.2,711.1c-23.3,0-42.3-19-42.3-42.3c0-23.3,19-42.3,42.3-42.3c23.3,0,42.3,19,42.3,42.3C882.5,692.2,863.5,711.1,840.2,711.1z M270.4,607.9c-33.6,0-60.9,27.3-60.9,60.9c0,33.6,27.3,60.9,60.9,60.9c33.6,0,60.9-27.3,60.9-60.9C331.3,635.3,304,607.9,270.4,607.9z M270.4,711.1c-23.3,0-42.3-19-42.3-42.3c0-23.3,19-42.3,42.3-42.3c23.3,0,42.3,19,42.3,42.3C312.7,692.2,293.7,711.1,270.4,711.1z"/></g><g></g><g></g><g></g><g></g><g></g><g></g><g></g><g></g><g></g><g></g><g></g><g></g><g></g><g></g><g></g></g>
</svg>